<svg width="95" height="95" viewBox="0 0 229 223" fill="none" xmlns="http://www.w3.org/2000/svg">
<ellipse cx="114.5" cy="111.5" rx="114.5" ry="111.5" fill="#9D2235"/>
<g filter="url(#filter0_i_0_1)">
<path d="M31.6719 99.1602C34.3203 99.2539 36.4004 99.3008 37.9121 99.3008C39.3418 99.3008 41.3809 99.2539 44.0293 99.1602C44.0762 99.3477 44.0996 99.4766 44.0996 99.5469C44.0996 99.6758 44.0762 99.8223 44.0293 99.9863C43.4902 100.033 43.0508 100.086 42.7109 100.145C42.3711 100.191 41.9551 100.273 41.4629 100.391C40.9707 100.508 40.5957 100.678 40.3379 100.9C40.0801 101.111 39.9512 101.369 39.9512 101.674C39.9395 102.436 39.9219 104.223 39.8984 107.035C39.8867 109.848 39.8691 112.479 39.8457 114.928C39.8223 116.885 39.7871 118.49 39.7402 119.744C39.7051 120.986 39.623 122.369 39.4941 123.893C39.377 125.404 39.207 126.617 38.9844 127.531C38.7734 128.457 38.4805 129.4 38.1055 130.361C37.7305 131.334 37.2734 132.078 36.7344 132.594C36.207 133.109 35.5566 133.531 34.7832 133.859C34.0098 134.188 33.1191 134.352 32.1113 134.352C30.4121 134.352 29.0938 133.936 28.1562 133.104C27.2188 132.271 26.75 131.287 26.75 130.15C26.75 129.178 27.0078 128.422 27.5234 127.883C28.0391 127.355 28.7188 127.092 29.5625 127.092C30.2539 127.092 30.8457 127.279 31.3379 127.654C31.8301 128.029 32.0762 128.586 32.0762 129.324C32.0762 129.723 31.9766 130.074 31.7773 130.379C31.5781 130.695 31.3555 130.924 31.1094 131.064C30.875 131.217 30.6582 131.352 30.459 131.469C30.2598 131.598 30.1602 131.686 30.1602 131.732C30.1602 132.178 30.3301 132.541 30.6699 132.822C31.0215 133.104 31.502 133.244 32.1113 133.244C32.7676 133.244 33.3184 133.121 33.7637 132.875C34.2207 132.629 34.5898 132.283 34.8711 131.838C35.1641 131.393 35.3867 130.771 35.5391 129.975C35.6914 129.178 35.791 128.328 35.8379 127.426C35.8965 126.523 35.9258 125.393 35.9258 124.033C35.9258 112.455 35.8672 105.002 35.75 101.674C35.7383 101.369 35.6035 101.111 35.3457 100.9C35.0879 100.678 34.7129 100.508 34.2207 100.391C33.7285 100.273 33.3125 100.191 32.9727 100.145C32.6445 100.086 32.2109 100.033 31.6719 99.9863C31.625 99.7754 31.6016 99.6289 31.6016 99.5469C31.6016 99.4297 31.625 99.3008 31.6719 99.1602ZM60.7637 98.5625C61.666 98.5625 62.6152 98.6562 63.6113 98.8438C64.6191 99.0312 65.6094 99.3418 66.582 99.7754C67.5664 100.197 68.5039 100.76 69.3945 101.463C70.2969 102.154 71.0879 103.004 71.7676 104.012C72.4473 105.02 72.9863 106.197 73.3848 107.545C73.7949 108.893 74 110.439 74 112.186C74 113.943 73.8008 115.502 73.4023 116.861C73.0039 118.209 72.4648 119.387 71.7852 120.395C71.1055 121.391 70.3145 122.234 69.4121 122.926C68.5215 123.605 67.5781 124.156 66.582 124.578C65.5977 124.988 64.5898 125.281 63.5586 125.457C62.5273 125.645 61.543 125.738 60.6055 125.738C59.7148 125.738 58.7656 125.645 57.7578 125.457C56.7617 125.281 55.7715 124.988 54.7871 124.578C53.8027 124.156 52.8594 123.605 51.957 122.926C51.0664 122.234 50.2754 121.391 49.584 120.395C48.9043 119.387 48.3594 118.209 47.9492 116.861C47.5508 115.502 47.3516 113.943 47.3516 112.186C47.3516 110.381 47.5625 108.793 47.9844 107.422C48.4062 106.039 48.9629 104.844 49.6543 103.836C50.3574 102.828 51.166 101.99 52.0801 101.322C53.0059 100.643 53.9609 100.098 54.9453 99.6875C55.9414 99.2773 56.9375 98.9902 57.9336 98.8262C58.9414 98.6504 59.8848 98.5625 60.7637 98.5625ZM60.6758 99.8281C59.5742 99.8281 58.5957 100.01 57.7402 100.373C56.8848 100.736 56.1348 101.229 55.4902 101.85C54.8457 102.459 54.3008 103.174 53.8555 103.994C53.4102 104.803 53.0469 105.664 52.7656 106.578C52.4961 107.492 52.2969 108.43 52.168 109.391C52.0508 110.352 51.9922 111.283 51.9922 112.186C51.9922 113.053 52.0508 113.955 52.168 114.893C52.2852 115.83 52.4785 116.756 52.748 117.67C53.0176 118.572 53.3691 119.434 53.8027 120.254C54.248 121.074 54.793 121.795 55.4375 122.416C56.082 123.037 56.832 123.535 57.6875 123.91C58.5547 124.273 59.5508 124.455 60.6758 124.455C61.7773 124.455 62.7559 124.279 63.6113 123.928C64.4668 123.564 65.2168 123.078 65.8613 122.469C66.5059 121.848 67.0449 121.133 67.4785 120.324C67.9238 119.504 68.2812 118.643 68.5508 117.74C68.832 116.826 69.0312 115.895 69.1484 114.945C69.2773 113.996 69.3418 113.076 69.3418 112.186C69.3418 111.283 69.2773 110.352 69.1484 109.391C69.0312 108.43 68.832 107.492 68.5508 106.578C68.2812 105.664 67.9238 104.803 67.4785 103.994C67.0332 103.174 66.4883 102.459 65.8438 101.85C65.1992 101.229 64.4492 100.736 63.5938 100.373C62.7383 100.01 61.7656 99.8281 60.6758 99.8281ZM77.709 99.1953C79.6777 99.2656 81.7285 99.3008 83.8613 99.3008C84.8691 99.3008 85.8301 99.2773 86.7441 99.2305C87.6582 99.1836 88.127 99.1602 88.1504 99.1602C88.7832 99.1602 89.3633 99.1777 89.8906 99.2129C90.4297 99.2363 91.0332 99.2949 91.7012 99.3887C92.3809 99.4824 92.9844 99.6113 93.5117 99.7754C94.0391 99.9395 94.5664 100.168 95.0938 100.461C95.6328 100.754 96.0781 101.1 96.4297 101.498C96.793 101.896 97.0859 102.389 97.3086 102.975C97.5312 103.561 97.6426 104.217 97.6426 104.943C97.6426 107.088 96.3594 108.699 93.793 109.777V109.918C95.7148 110.27 97.3203 111.066 98.6094 112.309C99.9102 113.551 100.561 115.139 100.561 117.072C100.561 118.104 100.373 119.035 99.998 119.867C99.6348 120.688 99.166 121.367 98.5918 121.906C98.0176 122.445 97.2969 122.914 96.4297 123.312C95.5625 123.711 94.7188 124.016 93.8984 124.227C93.0781 124.438 92.1348 124.607 91.0684 124.736C90.0137 124.854 89.1113 124.93 88.3613 124.965C87.6113 124.988 86.7734 125 85.8477 125C82.6719 125 79.9473 125.035 77.6738 125.105C77.627 124.965 77.6035 124.848 77.6035 124.754C77.6035 124.672 77.627 124.514 77.6738 124.279C78.0254 124.244 78.3066 124.215 78.5176 124.191C78.7285 124.168 79.0156 124.127 79.3789 124.068C79.7539 124.01 80.0527 123.945 80.2754 123.875C80.5098 123.793 80.75 123.693 80.9961 123.576C81.2422 123.459 81.4238 123.318 81.541 123.154C81.6699 122.99 81.7344 122.803 81.7344 122.592C81.875 118.924 81.9453 115.227 81.9453 111.5C81.9453 107.703 81.8867 104.428 81.7695 101.674C81.7578 101.369 81.623 101.111 81.3652 100.9C81.1191 100.689 80.7441 100.525 80.2402 100.408C79.7363 100.291 79.332 100.215 79.0273 100.18C78.7227 100.133 78.2832 100.08 77.709 100.021C77.6621 99.8105 77.6387 99.6641 77.6387 99.582C77.6387 99.5117 77.6621 99.3828 77.709 99.1953ZM85.6543 111.5V112.801L85.8477 123.805C86.6328 123.805 87.3301 123.793 87.9395 123.77C88.5488 123.734 89.2168 123.664 89.9434 123.559C90.6699 123.441 91.3027 123.289 91.8418 123.102C92.3809 122.914 92.9199 122.656 93.459 122.328C93.998 121.988 94.4375 121.59 94.7773 121.133C95.1172 120.676 95.3926 120.113 95.6035 119.445C95.8145 118.766 95.9199 118.004 95.9199 117.16C95.9199 116.34 95.7852 115.607 95.5156 114.963C95.2461 114.307 94.8652 113.762 94.373 113.328C93.8926 112.883 93.3008 112.514 92.5977 112.221C91.9062 111.928 91.1504 111.717 90.3301 111.588C89.5215 111.459 88.6367 111.395 87.6758 111.395C87.0078 111.395 86.334 111.43 85.6543 111.5ZM85.8828 100.408L85.6543 110.428C90.4355 110.428 92.8262 108.6 92.8262 104.943C92.8262 103.35 92.3281 102.178 91.332 101.428C90.3477 100.678 89.0352 100.303 87.3945 100.303C87.0312 100.303 86.5273 100.338 85.8828 100.408ZM113.111 99.1602C115.736 99.2539 117.775 99.3008 119.229 99.3008C120.682 99.3008 122.721 99.2539 125.346 99.1602C125.393 99.3477 125.416 99.4766 125.416 99.5469C125.416 99.6289 125.393 99.7754 125.346 99.9863C124.807 100.033 124.367 100.086 124.027 100.145C123.699 100.191 123.289 100.273 122.797 100.391C122.316 100.508 121.947 100.678 121.689 100.9C121.432 101.111 121.297 101.369 121.285 101.674C121.133 105.178 121.057 108.441 121.057 111.465C122.357 111.512 124.326 111.535 126.963 111.535C129.119 111.535 131.281 111.5 133.449 111.43C133.402 107.07 133.344 103.818 133.273 101.674C133.262 101.369 133.127 101.111 132.869 100.9C132.611 100.678 132.236 100.508 131.744 100.391C131.252 100.273 130.836 100.191 130.496 100.145C130.168 100.086 129.734 100.033 129.195 99.9863C129.148 99.7754 129.125 99.6289 129.125 99.5469C129.125 99.4766 129.148 99.3477 129.195 99.1602C131.844 99.2539 133.883 99.3008 135.312 99.3008C136.754 99.3008 138.799 99.2539 141.447 99.1602C141.494 99.3477 141.518 99.4766 141.518 99.5469C141.518 99.6289 141.494 99.7754 141.447 99.9863C140.908 100.033 140.469 100.086 140.129 100.145C139.801 100.191 139.391 100.273 138.898 100.391C138.406 100.508 138.031 100.678 137.773 100.9C137.516 101.111 137.381 101.369 137.369 101.674C137.252 104.592 137.193 108.084 137.193 112.15C137.193 116.193 137.252 119.674 137.369 122.592C137.381 122.896 137.516 123.16 137.773 123.383C138.031 123.594 138.406 123.758 138.898 123.875C139.391 123.992 139.801 124.08 140.129 124.139C140.469 124.186 140.908 124.232 141.447 124.279C141.494 124.467 141.518 124.625 141.518 124.754C141.518 124.848 141.494 124.965 141.447 125.105C139.455 125.035 137.41 125 135.312 125C133.215 125 131.176 125.035 129.195 125.105C129.148 124.965 129.125 124.848 129.125 124.754C129.125 124.555 129.148 124.396 129.195 124.279C129.734 124.232 130.174 124.186 130.514 124.139C130.854 124.08 131.27 123.992 131.762 123.875C132.254 123.758 132.629 123.594 132.887 123.383C133.145 123.16 133.273 122.896 133.273 122.592C133.367 118.408 133.426 115.238 133.449 113.082C131.281 113.012 129.119 112.977 126.963 112.977C125.627 112.977 123.658 113 121.057 113.047C121.057 115.543 121.121 118.725 121.25 122.592C121.262 122.896 121.396 123.16 121.654 123.383C121.912 123.594 122.281 123.758 122.762 123.875C123.254 123.992 123.664 124.08 123.992 124.139C124.332 124.186 124.771 124.232 125.311 124.279C125.357 124.514 125.381 124.672 125.381 124.754C125.381 124.848 125.357 124.965 125.311 125.105C123.318 125.035 121.279 125 119.193 125C117.084 125 115.045 125.035 113.076 125.105C113.029 124.965 113.006 124.848 113.006 124.754C113.006 124.555 113.029 124.396 113.076 124.279C113.615 124.232 114.049 124.186 114.377 124.139C114.717 124.08 115.127 123.992 115.607 123.875C116.1 123.758 116.475 123.594 116.732 123.383C116.99 123.16 117.125 122.896 117.137 122.592C117.277 118.924 117.348 115.227 117.348 111.5C117.348 107.703 117.289 104.428 117.172 101.674C117.16 101.369 117.025 101.111 116.768 100.9C116.51 100.678 116.135 100.508 115.643 100.391C115.162 100.273 114.752 100.191 114.412 100.145C114.084 100.086 113.65 100.033 113.111 99.9863C113.064 99.7754 113.041 99.6289 113.041 99.5469C113.041 99.4297 113.064 99.3008 113.111 99.1602ZM143.574 99.1602C145.555 99.2305 147.594 99.2656 149.691 99.2656C151.801 99.2656 153.84 99.2305 155.809 99.1602C155.855 99.3477 155.879 99.4766 155.879 99.5469C155.879 99.6289 155.855 99.7754 155.809 99.9863C155.457 100.021 155.176 100.051 154.965 100.074C154.754 100.098 154.461 100.139 154.086 100.197C153.723 100.256 153.424 100.326 153.189 100.408C152.967 100.479 152.732 100.572 152.486 100.689C152.24 100.807 152.053 100.947 151.924 101.111C151.807 101.275 151.748 101.463 151.748 101.674C151.701 103.232 151.678 107.516 151.678 114.523C151.678 117.863 152.234 120.289 153.348 121.801C154.473 123.312 156.377 124.068 159.061 124.068C161.768 124.068 163.854 123.248 165.318 121.607C166.783 119.955 167.516 117.594 167.516 114.523C167.516 108.934 167.48 104.732 167.41 101.92C167.387 100.865 166.092 100.221 163.525 99.9863C163.479 99.7285 163.455 99.5703 163.455 99.5117C163.455 99.418 163.479 99.3008 163.525 99.1602C165.389 99.2305 167.053 99.2656 168.518 99.2656C169.455 99.2656 171.031 99.2305 173.246 99.1602C173.293 99.3008 173.316 99.418 173.316 99.5117C173.316 99.6992 173.293 99.8574 173.246 99.9863C170.703 100.221 169.402 100.865 169.344 101.92C169.227 104.709 169.168 108.91 169.168 114.523C169.168 116.234 168.945 117.764 168.5 119.111C168.055 120.447 167.486 121.52 166.795 122.328C166.104 123.137 165.295 123.805 164.369 124.332C163.455 124.859 162.57 125.223 161.715 125.422C160.859 125.621 159.998 125.721 159.131 125.721C157.971 125.721 156.928 125.656 156.002 125.527C155.076 125.398 154.174 125.182 153.295 124.877C152.416 124.561 151.654 124.127 151.01 123.576C150.365 123.014 149.797 122.328 149.305 121.52C148.812 120.711 148.443 119.721 148.197 118.549C147.951 117.377 147.828 116.035 147.828 114.523V111.641C147.828 107.715 147.764 104.393 147.635 101.674C147.623 101.369 147.488 101.111 147.23 100.9C146.973 100.678 146.598 100.508 146.105 100.391C145.625 100.273 145.215 100.191 144.875 100.145C144.547 100.086 144.113 100.033 143.574 99.9863C143.527 99.7754 143.504 99.6289 143.504 99.5469C143.504 99.4766 143.527 99.3477 143.574 99.1602ZM175.232 99.1953C177.201 99.2656 179.252 99.3008 181.385 99.3008C182.393 99.3008 183.354 99.2773 184.268 99.2305C185.182 99.1836 185.65 99.1602 185.674 99.1602C186.307 99.1602 186.887 99.1777 187.414 99.2129C187.953 99.2363 188.557 99.2949 189.225 99.3887C189.904 99.4824 190.508 99.6113 191.035 99.7754C191.562 99.9395 192.09 100.168 192.617 100.461C193.156 100.754 193.602 101.1 193.953 101.498C194.316 101.896 194.609 102.389 194.832 102.975C195.055 103.561 195.166 104.217 195.166 104.943C195.166 107.088 193.883 108.699 191.316 109.777V109.918C193.238 110.27 194.844 111.066 196.133 112.309C197.434 113.551 198.084 115.139 198.084 117.072C198.084 118.104 197.896 119.035 197.521 119.867C197.158 120.688 196.689 121.367 196.115 121.906C195.541 122.445 194.82 122.914 193.953 123.312C193.086 123.711 192.242 124.016 191.422 124.227C190.602 124.438 189.658 124.607 188.592 124.736C187.537 124.854 186.635 124.93 185.885 124.965C185.135 124.988 184.297 125 183.371 125C180.195 125 177.471 125.035 175.197 125.105C175.15 124.965 175.127 124.848 175.127 124.754C175.127 124.672 175.15 124.514 175.197 124.279C175.549 124.244 175.83 124.215 176.041 124.191C176.252 124.168 176.539 124.127 176.902 124.068C177.277 124.01 177.576 123.945 177.799 123.875C178.033 123.793 178.273 123.693 178.52 123.576C178.766 123.459 178.947 123.318 179.064 123.154C179.193 122.99 179.258 122.803 179.258 122.592C179.398 118.924 179.469 115.227 179.469 111.5C179.469 107.703 179.41 104.428 179.293 101.674C179.281 101.369 179.146 101.111 178.889 100.9C178.643 100.689 178.268 100.525 177.764 100.408C177.26 100.291 176.855 100.215 176.551 100.18C176.246 100.133 175.807 100.08 175.232 100.021C175.186 99.8105 175.162 99.6641 175.162 99.582C175.162 99.5117 175.186 99.3828 175.232 99.1953ZM183.178 111.5V112.801L183.371 123.805C184.156 123.805 184.854 123.793 185.463 123.77C186.072 123.734 186.74 123.664 187.467 123.559C188.193 123.441 188.826 123.289 189.365 123.102C189.904 122.914 190.443 122.656 190.982 122.328C191.521 121.988 191.961 121.59 192.301 121.133C192.641 120.676 192.916 120.113 193.127 119.445C193.338 118.766 193.443 118.004 193.443 117.16C193.443 116.34 193.309 115.607 193.039 114.963C192.77 114.307 192.389 113.762 191.896 113.328C191.416 112.883 190.824 112.514 190.121 112.221C189.43 111.928 188.674 111.717 187.854 111.588C187.045 111.459 186.16 111.395 185.199 111.395C184.531 111.395 183.857 111.43 183.178 111.5ZM183.406 100.408L183.178 110.428C187.959 110.428 190.35 108.6 190.35 104.943C190.35 103.35 189.852 102.178 188.855 101.428C187.871 100.678 186.559 100.303 184.918 100.303C184.555 100.303 184.051 100.338 183.406 100.408Z" fill="#F5F5F5"/>
</g>
<defs>
<filter id="filter0_i_0_1" x="26.75" y="98.5625" width="171.334" height="39.7891" filterUnits="userSpaceOnUse" color-interpolation-filters="sRGB">
<feFlood flood-opacity="0" result="BackgroundImageFix"/>
<feBlend mode="normal" in="SourceGraphic" in2="BackgroundImageFix" result="shape"/>
<feColorMatrix in="SourceAlpha" type="matrix" values="0 0 0 0 0 0 0 0 0 0 0 0 0 0 0 0 0 0 127 0" result="hardAlpha"/>
<feOffset dy="4"/>
<feGaussianBlur stdDeviation="2"/>
<feComposite in2="hardAlpha" operator="arithmetic" k2="-1" k3="1"/>
<feColorMatrix type="matrix" values="0 0 0 0 0 0 0 0 0 0 0 0 0 0 0 0 0 0 0.25 0"/>
<feBlend mode="normal" in2="shape" result="effect1_innerShadow_0_1"/>
</filter>
</defs>
</svg>
